<?xml version="1.0" encoding="UTF-8"?>
<svg version="1.1" viewBox="0 0 990 765" xmlns="http://www.w3.org/2000/svg">
 <g transform="translate(0 -287.36)">
  <g transform="matrix(.57357 0 0 .57357 129.25 -17.88)">
   <path d="m1468.6 1576.6c0 32.348-365.21 58.572-815.71 58.572-450.51 0-815.71-26.223-815.71-58.572 0-32.348 365.21-58.571 815.71-58.571 450.51 0 815.71 26.223 815.71 58.571z" fill="#80aa1f" fill-opacity=".78431"/>
   <g fill-opacity=".78431">
    <path transform="translate(-24,2)" d="m522.86 1345.2c0 22.88-31.98 41.428-71.429 41.428s-71.429-18.548-71.429-41.428c0-22.88 31.98-41.429 71.429-41.429s71.429 18.548 71.429 41.429z" fill="#80aa1f"/>
    <path transform="translate(-388.29 -54.286)" d="m1285.7 1370.9c0 33.926-34.538 61.429-77.143 61.429s-77.143-27.502-77.143-61.429 34.538-61.429 77.143-61.429 77.143 27.502 77.143 61.429z" fill="#80aa1f"/>
    <path transform="matrix(.83333 0 0 .96875 1199.5 695.92)" d="m-54.286 372.36c0 75.742-76.751 137.14-171.43 137.14s-171.43-61.401-171.43-137.14c0-75.742 76.751-137.14 171.43-137.14s171.43 61.401 171.43 137.14z" fill="#fad0e6"/>
    <path transform="matrix(.83333 0 0 .96875 1388.1 605.92)" d="m-54.286 372.36c0 75.742-76.751 137.14-171.43 137.14s-171.43-61.401-171.43-137.14c0-75.742 76.751-137.14 171.43-137.14s171.43 61.401 171.43 137.14z" fill="#8b5409"/>
    <path transform="matrix(.88333 0 0 .875 970.81 717.97)" d="m-54.286 372.36c0 75.742-76.751 137.14-171.43 137.14s-171.43-61.401-171.43-137.14c0-75.742 76.751-137.14 171.43-137.14s171.43 61.401 171.43 137.14z" fill="#77d0e6"/>
    <path transform="matrix(.83333 0 0 .96875 1502.4 745.92)" d="m-54.286 372.36c0 75.742-76.751 137.14-171.43 137.14s-171.43-61.401-171.43-137.14c0-75.742 76.751-137.14 171.43-137.14s171.43 61.401 171.43 137.14z" fill="#80aa1f"/>
    <path transform="translate(768.57 762.86)" d="m-54.286 372.36c0 75.742-76.751 137.14-171.43 137.14s-171.43-61.401-171.43-137.14c0-75.742 76.751-137.14 171.43-137.14s171.43 61.401 171.43 137.14z" fill="#fad0e6"/>
    <path transform="matrix(.80833 0 0 .8125 663.88 672.68)" d="m-54.286 372.36c0 75.742-76.751 137.14-171.43 137.14s-171.43-61.401-171.43-137.14c0-75.742 76.751-137.14 171.43-137.14s171.43 61.401 171.43 137.14z" fill="#fdefba"/>
    <path transform="translate(500 688.57)" d="m-54.286 372.36c0 75.742-76.751 137.14-171.43 137.14s-171.43-61.401-171.43-137.14c0-75.742 76.751-137.14 171.43-137.14s171.43 61.401 171.43 137.14z" fill="#6666e2"/>
    <path transform="translate(248.57 634.29)" d="m-54.286 372.36c0 75.742-76.751 137.14-171.43 137.14s-171.43-61.401-171.43-137.14c0-75.742 76.751-137.14 171.43-137.14s171.43 61.401 171.43 137.14z" fill="#e3cde2"/>
   </g>
   <path d="m286.13 1562.4-15.225-2.0465 0.017-50.081c0.0216-63.287-1.505-108.8-6.0902-181.58-4.9628-78.772-14.136-183.65-16.232-185.59-0.68473-0.6326-10.245-6.8853-21.245-13.895s-20.396-13.112-20.88-13.561c-0.48423-0.449 7.3908 1.637 17.5 4.6355 23.828 7.0678 23.88 7.0786 23.88 4.9548 0-0.9373-2.714-28.556-6.0312-61.375-6.8794-68.063-7.1572-71.035-6.5106-69.671 0.26066 0.55 4.3436 15.4 9.0733 33 10.643 39.603 14.271 52.636 14.803 53.167 0.22689 0.2269 3.957-0.9969 8.2892-2.7196 9.1469-3.6372 63.634-21.917 83.377-27.972 7.425-2.2772 18.9-5.866 25.5-7.9751 6.5998-2.109 12.127-3.7071 12.283-3.5511 0.51628 0.5163-13.097 8.2199-25.391 14.368-6.6597 3.3306-22.64 10.549-35.512 16.041-29.994 12.797-40.499 17.692-52.862 24.631l-10.017 5.6224v3.9014c0 7.5379 9.0412 107.93 23.55 261.49 4.2152 44.613 13.707 148.84 15.436 169.5 1.0817 12.925 2.1596 25.188 2.3954 27.25 0.51378 4.4939 1.7874 4.4015-20.106 1.4587zm727.22 0.2936c-7.15-0.9653-13.869-1.9234-14.932-2.1292-1.8658-0.3614-1.9237-1.4461-1.7016-31.874 0.4623-63.337-3.3702-156.28-9.9169-240.5-3.9202-50.431-11.381-132.34-12.108-132.93-0.1879-0.1517-9.9136-6.2585-21.613-13.571-11.699-7.3123-21.139-13.427-20.978-13.588 0.1612-0.1612 7.9331 1.9352 17.271 4.6588 9.3378 2.7235 18.505 5.3777 20.372 5.8981l3.3944 0.9462-0.6379-8.2981c-0.3508-4.5639-3.3329-33.878-6.627-65.143-3.294-31.265-5.8667-56.968-5.7169-57.117 0.1498-0.1498 1.8926 5.6705 3.873 12.934 16.311 59.824 20.217 72.767 21.76 72.108 7.9374-3.3915 39.407-14.067 64.628-21.924 17.012-5.2999 38.57-12.05 47.905-15.001 9.3351-2.9504 17.119-5.2181 17.298-5.0393 0.1788 0.1789-4.534 3.0534-10.473 6.3878-12.062 6.7724-24.175 12.321-54.298 24.872-39.853 16.606-61 27.209-61 30.586 0 5.1039 18.144 200.14 23.51 252.72 2.8785 28.205 18.438 194.28 18.48 197.25 0.015 1.025-3.3249 0.7996-18.489-1.2477zm-972.5-2.5936c-5.225-0.7585-13.453-1.6784-18.284-2.0441s-8.9916-1.0012-9.2455-1.4121c-0.25395-0.4109-0.0322-7.2058 0.49283-15.1 2.3897-35.932 5.6053-180.56 8.0119-360.35 0.55951-41.8 1.1819-85.33 1.383-96.733l0.36572-20.733-10.612-10.44c-5.8366-5.742-16.687-15.708-24.112-22.146-17.334-15.031-40.312-37.304-36-34.895 0.825 0.46087 18.357 11.36 38.961 24.22 20.604 12.86 38.252 23.806 39.22 24.324 1.4419 0.7717 2.1088 0.2556 3.6999-2.8631 3.3788-6.6229 9.0158-23.894 16.722-51.234 8.4589-30.009 12.669-43.235 16.071-50.489 1.8251-3.8911 2.2432-4.3405 1.8707-2.0109-2.7255 17.046-4.3215 25.058-12.053 60.5-12.777 58.574-14.432 75.022-18.662 185.5-1.6029 41.858-1.6152 170.1-0.0197 204.5 3.4863 75.167 9.1087 127.42 17.734 164.81 0.80077 3.4716 1.4559 6.7341 1.4559 7.25 0 1.2392-5.3896 1.032-17-0.6534zm724.98 0.03c-4.6885-0.7336-12.696-1.7522-17.794-2.2636-5.0981-0.5113-9.4339-1.0975-9.635-1.3026-0.20113-0.205 0.0139-5.7728 0.47794-12.373 2.4679-35.104 5.3579-159.62 7.9379-342 0.54462-38.5 1.2615-85.372 1.5931-104.16l0.60292-34.159-3.8292-4.2476c-2.1061-2.3361-15.529-14.7-29.829-27.475-23.902-21.353-41.16-37.891-37.5-35.934 0.825 0.44112 18.763 11.562 39.862 24.713 21.099 13.151 38.941 24.133 39.648 24.404 1.8269 0.7011 8.2605-16.274 15.078-39.784 12.962-44.699 15.641-53.516 18.55-61.059 1.683-4.3642 3.2792-7.7159 3.547-7.448 0.68199 0.68199-3.8343 24.775-9.2582 49.391-7.9838 36.233-11.2 52.982-14.354 74.762-1.8125 12.515-5.254 75.198-7.1374 130-1.4313 41.645-1.433 155.37-3e-3 190.5 2.945 72.344 7.9581 123.13 16.098 163.07 1.6332 8.0148 2.9695 15.102 2.9695 15.75 0 1.4987-5.835 1.3673-17.025-0.3835zm-298.5-2.4721c-1.0303-1.667 1.6402-180.48 3.0722-205.71l0.58145-10.246-19.817-9.587c-10.899-5.2729-21.523-10.281-23.608-11.13-8.3938-3.4153-1.8297-2.1004 18.435 3.6928 11.746 3.3579 22.097 6.3252 23.001 6.5939 1.9414 0.577 1.8753 1.7436 4.8806-86.079 2.1014-61.409 5.6547-162.32 6.2985-178.87l0.38395-9.8713-11.378-9.0209c-6.258-4.9615-11.218-9.1812-11.022-9.3772 0.19598-0.196 5.2166 1.0084 11.157 2.6764 5.9403 1.668 10.954 2.8797 11.141 2.6926s0.80824-17.415 1.3803-38.284c1.2321-44.944 2.269-69.902 2.7604-66.444 1.4766 10.391 11.255 85.764 11.255 86.75-3.5e-4 0.6875 0.56186 1.2484 1.2494 1.2464 0.6875 0 10.138-2.8705 21-6.3745 10.862-3.5039 19.75-6.2451 19.75-6.0914 0 0.1536-5.0625 3.3259-11.25 7.0494s-15.188 9.1935-20 12.156l-8.75 5.3856v65.546c0 52.041 0.25755 65.442 1.25 65.039 0.6875-0.2794 11.6-4.8742 24.25-10.211s38.075-16.003 56.5-23.703 34.779-14.662 36.343-15.47c9.8048-5.0689-3.2015 3.6385-56.356 37.729l-59.95 38.449-0.0146 56c-8e-3 30.8-0.73085 93.35-1.6063 139s-1.4396 101.53-1.2538 124.19l0.33785 41.188-7 0.5247c-19.078 1.43-22.435 1.5125-23.02 0.5656zm725.54-42.294c0.015-41.478 1.234-116.9 2.5164-155.67l0.6119-18.5-23.076-10.912c-12.692-6.0017-22.951-11.037-22.799-11.19s10.382 2.5932 22.731 6.1019c12.35 3.5086 22.625 6.2083 22.834 5.9994 0.5435-0.5435 0.9968-11.09 2.7075-62.999 0.8338-25.3 2.6114-77.05 3.9501-115s2.5633-75.276 2.7213-82.946l0.2872-13.946-11.229-8.9922c-6.1759-4.9457-11.069-9.1519-10.874-9.3472 0.1952-0.1952 5.2237 1.0013 11.174 2.6589 5.9507 1.6577 11.044 2.7894 11.318 2.515 0.4191-0.4191 2.5451-66.577 3.1634-98.444 0.1712-8.8207 0.2462-9.1425 1.0493-4.5 1.0426 6.0274 9.6309 71.422 10.539 80.25 0.3537 3.4375 1.1115 6.25 1.684 6.25s9.554-2.7294 19.959-6.0654c10.405-3.3359 19.101-5.8821 19.325-5.6581s-8.4284 5.7278-19.228 12.231l-19.635 11.823 0.5581 65.085c0.4471 52.142 0.8125 65.021 1.8372 64.764 0.7035-0.1761 19.522-7.9912 41.818-17.367 22.296-9.3756 47.289-19.866 55.539-23.311s16.8-7.0165 19-7.9353c2.2-0.9189 3.55-1.2491 3-0.7338-0.55 0.5152-16.975 11.174-36.5 23.687-47.17 30.229-48.036 30.786-66.455 42.704l-15.955 10.324-0.2088 62.476c-0.1149 34.362-0.7554 86.326-1.4234 115.48-0.6681 29.15-1.2692 82.11-1.336 117.69l-0.1213 64.688-7 0.5271c-3.85 0.2899-10.488 0.7331-14.75 0.9848l-7.75 0.4577 0.015-43.173z"/>
  </g>
 </g>
</svg>
